<svg width="17" height="20" viewBox="0 0 17 20" fill="none" xmlns="http://www.w3.org/2000/svg">
<path d="M16.875 17.6562C16.875 18.0877 16.5252 18.4375 16.0938 18.4375H15.3125V19.2188C15.3125 19.6502 14.9627 20 14.5312 20C14.0998 20 13.75 19.6502 13.75 19.2188V18.4375H12.9688C12.5373 18.4375 12.1875 18.0877 12.1875 17.6562C12.1875 17.2248 12.5373 16.875 12.9688 16.875H13.75V16.0938C13.75 15.6623 14.0998 15.3125 14.5312 15.3125C14.9627 15.3125 15.3125 15.6623 15.3125 16.0938V16.875H16.0938C16.5252 16.875 16.875 17.2248 16.875 17.6562ZM16.875 5.46875V12.9688C16.875 13.4002 16.5252 13.75 16.0938 13.75C15.6623 13.75 15.3125 13.4002 15.3125 12.9688V6.25H13.75V8.59375C13.75 9.02523 13.4002 9.375 12.9688 9.375C12.5373 9.375 12.1875 9.02523 12.1875 8.59375V6.25H4.6875V8.59375C4.6875 9.02523 4.33773 9.375 3.90625 9.375C3.47477 9.375 3.125 9.02523 3.125 8.59375V6.25H1.5625V18.4375H9.84375C10.2752 18.4375 10.625 18.7873 10.625 19.2188C10.625 19.6502 10.2752 20 9.84375 20H0.78125C0.349766 20 0 19.6502 0 19.2188V5.46875C0 5.03727 0.349766 4.6875 0.78125 4.6875H3.16195C3.4723 2.05168 5.71965 0 8.4375 0C11.1554 0 13.4027 2.05168 13.713 4.6875H16.0938C16.5252 4.6875 16.875 5.03727 16.875 5.46875ZM12.1351 4.6875C11.8367 2.91621 10.2923 1.5625 8.4375 1.5625C6.5827 1.5625 5.03832 2.91621 4.73988 4.6875H12.1351Z" fill="#444444"/>
</svg>
